<svg xmlns="http://www.w3.org/2000/svg" viewBox="0 0 512 512" width="512" height="512">
  <rect width="512" height="512" rx="112" fill="#4F46E5"/>
  <path d="M256 160c-53 0-96 43-96 96s43 96 96 96 96-43 96-96-43-96-96-96zm0 160c-35.3 0-64-28.7-64-64s28.7-64 64-64 64 28.7 64 64-28.7 64-64 64z" fill="#ffffff"/>
  <path d="M344 168l-22.6-22.6c-6-6-14.1-9.4-22.6-9.4H213.3c-8.5 0-16.6 3.4-22.6 9.4L168 168h-40c-22.1 0-40 17.9-40 40v136c0 22.1 17.9 40 40 40h256c22.1 0 40-17.9 40-40V208c0-22.1-17.9-40-40-40h-40z" fill="#ffffff" opacity="0.8"/>
</svg>
